PathFileType	4	(X/Y/Z)	c:/Users/goper/Files/vsCode/490R/osim_files/A03/A03_Fast_04.trc
DataRate	CameraRate	NumFrames	NumMarkers	Units                	OrigDataRate	OrigDataStartFrame	OrigNumFrames
250.00	250.00	4	36	mm	250.0	1344	2687
                Frame#	Time	LPSIS			LASIS			LTH1			LTH2			LTH3			LTH4			LLFE			LMFE			LSH1			LSH2			LSH3			LSH4			LLMAL			LMMAL			LCAL			LMTP5			LTOE			LMTP1			RPSIS			RASIS			RTH1			RTH2			RTH3			RTH4			RLFE			RMFE			RSH1			RSH2			RSH3			RSH4			RLMAL			RMMAL			RCAL			RMTP1			RTOE			RMTP5		
		X1	Y1	Z1	X2	Y2	Z2	X3	Y3	Z3	X4	Y4	Z4	X5	Y5	Z5	X6	Y6	Z6	X7	Y7	Z7	X8	Y8	Z8	X9	Y9	Z9	X10	Y10	Z10	X11	Y11	Z11	X12	Y12	Z12	X13	Y13	Z13	X14	Y14	Z14	X15	Y15	Z15	X16	Y16	Z16	X17	Y17	Z17	X18	Y18	Z18	X19	Y19	Z19	X20	Y20	Z20	X21	Y21	Z21	X22	Y22	Z22	X23	Y23	Z23	X24	Y24	Z24	X25	Y25	Z25	X26	Y26	Z26	X27	Y27	Z27	X28	Y28	Z28	X29	Y29	Z29	X30	Y30	Z30	X31	Y31	Z31	X32	Y32	Z32	X33	Y33	Z33	X34	Y34	Z34	X35	Y35	Z35	X36	Y36	Z36

1344	5.37200	-1532.94360	1006.07629	259.37415	-1732.08643	911.61047	430.02994	-1547.14624	597.27417	457.44781	-1537.75793	554.21655	458.90561	-1604.44824	577.94385	450.37320	-1585.63892	536.69086	449.94598	-1520.12378	504.94208	449.65234	-1537.78760	490.80444	295.25357	-1437.28247	456.88144	446.78293	-1411.91907	415.50790	443.97897	-1485.20728	417.89355	440.21588	-1451.71497	384.47992	434.27545	-1226.92017	145.67223	404.45599	-1236.53516	148.34273	302.10437	-1156.22546	157.85959	351.85089	-1343.88318	40.32690	405.44202	-1376.24268	64.46394	334.93808	-1339.78174	49.72218	291.08517	-1548.59192	1005.65344	181.24124	-1818.43860	936.30249	136.34991	-1873.00269	594.44183	76.19774	-1892.47083	554.34314	83.76050	-1927.27319	618.95953	89.62477	-1940.77100	576.95361	94.66235	-1924.19153	533.32001	102.93452	-1937.98352	547.25989	227.41621	-1891.62903	456.97906	91.67474	-1901.52368	416.96512	80.46446	-1953.54456	463.52264	97.82928	-1956.06006	417.36688	86.60483	-1973.03638	116.48708	128.46095	0.00000	0.00000	0.00000	-1919.47424	83.48902	186.08621	-2128.94580	56.99987	235.97787	-2157.76416	83.18540	190.12825	-2130.40161	46.06285	120.08916
1345	5.37600	-1538.79150	1005.53717	259.37668	-1738.37415	911.05402	429.58005	-1554.71606	596.43903	458.01956	-1545.89038	552.99731	460.17419	-1612.48828	576.94794	451.25037	-1593.63696	536.38257	450.96832	-1528.67480	502.96512	451.24295	-1547.15869	488.74054	297.06738	-1444.16553	456.67731	447.65393	-1419.00110	415.43994	444.75436	-1492.36597	416.56464	441.46127	-1458.32214	383.77567	435.26309	-1229.71802	149.01730	403.43405	-1240.05261	151.51617	301.36325	-1159.54065	162.72821	350.40436	-1344.18237	40.77183	405.29230	-1376.80090	64.29742	335.90991	-1340.84216	50.54365	290.81332	-1554.17651	1005.98895	181.34042	-1824.44836	936.11700	135.85265	-1880.46985	595.73651	74.90682	-1899.74097	555.66797	82.74347	-1934.63647	620.15540	88.64444	-1948.01904	578.19397	93.87202	-1931.47449	534.68805	102.13172	-1945.85181	549.03937	226.15253	-1898.15393	458.87430	90.28223	-1907.50757	418.77026	79.15504	-1960.08484	464.33768	97.48158	-1961.96155	418.24640	86.24029	-1972.23108	117.06220	129.56004	0.00000	0.00000	0.00000	-1919.26160	83.56130	186.43515	-2129.04614	56.33368	236.44344	-2157.90796	82.65340	190.87326	-2130.44189	46.24962	120.50688
1346	5.38000	-1544.49109	1005.10968	259.52356	-1744.50171	910.63947	428.81876	-1562.86975	595.25671	459.12085	-1554.24255	551.78723	461.56580	-1620.72803	576.00079	452.25858	-1602.01392	535.32281	452.30313	-1537.44421	501.06689	453.02573	-1556.92725	486.62292	299.07059	-1451.12231	456.50879	448.62289	-1426.25610	415.51147	445.55475	-1499.69617	415.23477	442.83328	-1465.05811	383.09796	436.29828	-1232.63342	152.61125	402.31277	-1243.87097	154.95668	300.52313	-1163.21802	167.90770	348.78918	-1344.44165	41.31929	405.14334	-1378.10608	64.26251	335.94876	-1342.29492	51.37809	290.64636	-1559.70361	1006.54034	181.46358	-1830.34631	936.01971	135.32735	-1887.27441	596.90808	73.52472	-1906.82581	557.06573	81.59128	-1941.62659	621.27539	87.51864	-1954.41895	579.10980	95.52996	-1938.40723	536.09711	101.21869	-1953.72046	550.98865	224.71317	-1904.52795	460.82690	88.90650	-1913.27124	420.55206	77.90382	-1966.86572	465.25836	97.49664	-1967.67871	419.09805	85.91425	-1971.59607	117.64982	130.40834	0.00000	0.00000	0.00000	-1919.55713	83.80845	186.54279	-2129.51123	56.07387	236.43292	-2158.23193	82.22672	190.83229	-2130.56860	46.10393	120.38188
1347	5.38400	-1550.74194	1004.75745	259.69040	-1750.67688	910.29272	428.09241	-1571.35913	594.05902	460.36703	-1562.83728	550.58966	462.99576	-1629.14343	575.04163	453.32498	-1611.37598	534.47174	456.46402	-1546.44568	499.12601	454.87576	-1567.07458	484.39645	301.21768	-1458.68286	456.27164	449.65869	-1433.81702	415.58392	446.41263	-1507.15186	413.90427	444.26489	-1472.00903	382.48840	437.39661	-1235.84998	156.36560	401.11047	-1248.02832	158.51216	299.61792	-1167.15173	173.43663	347.03000	-1344.69629	41.93194	404.94464	-1379.23193	64.00944	335.77771	-1343.62231	52.39430	290.27921	-1565.25366	1007.19763	181.53073	-1836.13611	936.00757	134.77565	-1894.26355	598.39166	72.03056	-1913.48596	558.51019	80.36069	-1947.83521	622.53595	87.91100	-1960.61768	579.68378	95.13819	-1944.93335	537.57385	100.27164	-1961.53308	552.96051	223.01219	-1910.65247	462.65796	87.66936	-1918.80518	422.23068	76.78653	-1972.89807	466.12625	96.97062	-1972.17676	420.03375	85.31371	-1971.55725	118.13367	130.62885	0.00000	0.00000	0.00000	-1919.43787	84.12182	186.59941	-2129.52393	55.85139	236.09253	-2158.76196	81.64407	190.39183	-2130.79688	45.64990	120.07214
